<?xml version="1.0" standalone="no"?>
<!DOCTYPE svg PUBLIC "-//W3C//DTD SVG 20010904//EN"
 "http://www.w3.org/TR/2001/REC-SVG-20010904/DTD/svg10.dtd">
<svg version="1.0" xmlns="http://www.w3.org/2000/svg"
 width="700.000000pt" height="700.000000pt" viewBox="0 0 700.000000 700.000000"
 preserveAspectRatio="xMidYMid meet">
<metadata>
Created by potrace 1.11, written by Peter Selinger 2001-2013
</metadata>
<g transform="translate(0.000000,700.000000) scale(0.100000,-0.100000)"
fill="#000000" stroke="none">
<path d="M1688 5685 c-1 -1 -25 -5 -53 -8 -170 -19 -375 -109 -545 -240 -323
-249 -557 -633 -629 -1033 -21 -116 -26 -334 -10 -439 5 -33 11 -71 13 -85 15
-101 73 -273 138 -407 40 -83 147 -264 168 -283 3 -3 23 -27 44 -55 22 -27 78
-88 125 -134 193 -190 393 -303 626 -355 77 -17 112 -19 390 -20 l230 -1 3
218 2 217 -42 1 c-24 0 -142 2 -263 3 -121 1 -233 6 -250 10 -238 63 -438 223
-585 472 -65 111 -119 237 -136 324 -3 14 -9 41 -14 60 -33 128 -30 326 9 494
19 81 81 236 124 311 146 255 353 432 577 494 73 20 96 21 1016 21 915 -1 943
-1 1015 -21 219 -61 419 -229 564 -474 148 -250 199 -537 147 -818 -42 -221
-167 -454 -330 -616 l-85 -84 0 -244 c0 -134 3 -246 6 -249 12 -12 220 123
298 193 180 164 309 333 408 538 187 388 212 766 76 1172 -154 461 -550 873
-955 997 -139 42 -170 43 -1144 44 -514 0 -936 -1 -938 -3z"/>
<path d="M5250 4156 l0 -221 248 0 c267 -1 300 -4 388 -34 110 -39 203 -101
309 -206 55 -55 107 -109 115 -121 8 -11 24 -33 36 -50 34 -47 101 -175 124
-234 11 -30 24 -64 29 -75 60 -140 77 -458 33 -625 -65 -247 -185 -456 -351
-612 -111 -105 -216 -167 -346 -204 l-80 -23 -941 0 c-910 0 -944 0 -1015 20
-213 57 -406 215 -556 454 -64 101 -141 298 -157 400 -4 22 -9 53 -12 69 -17
101 -9 268 21 415 12 61 62 192 103 273 61 118 140 225 232 312 l70 66 0 250
c0 137 -4 250 -8 250 -5 0 -45 -22 -90 -50 -199 -120 -374 -292 -510 -499
-112 -171 -217 -438 -246 -626 -17 -109 -23 -306 -12 -390 2 -16 7 -55 11 -85
17 -134 119 -417 190 -530 14 -22 25 -42 25 -45 0 -10 120 -176 167 -232 206
-243 462 -408 728 -470 75 -17 144 -18 1040 -18 528 0 983 3 1010 7 116 16
365 106 396 144 6 8 17 14 23 14 38 0 302 231 399 350 141 172 274 435 331
656 63 242 56 530 -19 788 -27 92 -94 256 -134 326 -15 25 -32 57 -40 72 -8
15 -49 74 -92 132 -190 253 -429 436 -669 514 -149 48 -193 54 -477 56 l-273
2 0 -220z"/>
</g>
</svg>
